<svg width="87" height="86" xmlns="http://www.w3.org/2000/svg" xmlns:xlink="http://www.w3.org/1999/xlink" xml:space="preserve" overflow="hidden"><defs><filter id="fx0" x="-10%" y="-10%" width="120%" height="120%" filterUnits="userSpaceOnUse" primitiveUnits="userSpaceOnUse"><feComponentTransfer color-interpolation-filters="sRGB"><feFuncR type="discrete" tableValues="0 0"/><feFuncG type="discrete" tableValues="0 0"/><feFuncB type="discrete" tableValues="0 0"/><feFuncA type="linear" slope="0.4" intercept="0"/></feComponentTransfer><feGaussianBlur stdDeviation="1.77778 1.77778"/></filter><clipPath id="clip1"><rect x="132" y="54" width="87" height="86"/></clipPath><clipPath id="clip2"><rect x="5" y="5" width="78" height="78"/></clipPath></defs><g clip-path="url(#clip1)" transform="translate(-132 -54)"><g clip-path="url(#clip2)" filter="url(#fx0)" transform="translate(131 53)"><g><g><g><g><path d="M52.2625 26.9792 49.6417 24.3583 47.4833 26.5167 50.1042 29.1375 47.6375 31.6042 45.0167 28.9833 42.8583 31.1417 45.4792 33.7625 43.0125 36.2292 40.3917 33.6083 38.2333 35.7667 40.8542 38.3875 38.4646 40.7771 33.2229 35.5354 49.3333 19.425 54.575 24.6667 52.2625 26.9792ZM67.1396 16.1104 57.8896 6.86042C56.9646 5.93542 55.5 5.93542 54.6521 6.86042 53.7271 7.78542 53.7271 9.25 54.6521 10.0979L56.5792 12.025 52.4937 16.1104 49.3333 12.95 47.8687 11.4854C46.9437 10.5604 45.4792 10.5604 44.6312 11.4854 43.7062 12.4104 43.7062 13.875 44.6312 14.7229L46.0958 16.1875 25.7458 36.5375C24.2042 38.0792 23.2792 40.1604 23.2792 42.3958 23.2792 43.2437 23.4333 44.0917 23.6646 44.9396L19.6562 48.9479C18.5771 50.0271 18.2687 51.6458 18.8083 53.0333L6.62917 65.2125C6.0125 65.8292 6.0125 66.7542 6.62917 67.3708 6.9375 67.6792 7.32292 67.8333 7.70833 67.8333 8.09375 67.8333 8.47917 67.6792 8.7875 67.3708L20.9667 55.1917C22.3542 55.7313 23.9729 55.4229 25.0521 54.3438L29.0604 50.3354C29.9083 50.5667 30.7563 50.7208 31.6042 50.7208 33.7625 50.7208 35.8438 49.95 37.4625 48.2542L57.8125 27.9042 59.2771 29.3687C59.7396 29.8312 60.3563 30.0625 60.8958 30.0625 61.4354 30.0625 62.0521 29.8312 62.5146 29.3687 63.4396 28.4438 63.4396 26.9792 62.5146 26.1313L61.05 24.6667 57.8896 21.5062 61.975 17.4208 63.9021 19.3479C64.3646 19.8104 64.9812 20.0417 65.5208 20.0417 66.0604 20.0417 66.6771 19.8104 67.1396 19.3479 68.0646 18.4229 68.0646 17.0354 67.1396 16.1104Z" stroke="#FFC000" stroke-width="0.770813" fill="#4472C4" transform="matrix(1.01351 0 0 1 6.82843 6.82843)"/></g></g></g></g></g><g><g><g><path d="M52.2625 26.9792 49.6417 24.3583 47.4833 26.5167 50.1042 29.1375 47.6375 31.6042 45.0167 28.9833 42.8583 31.1417 45.4792 33.7625 43.0125 36.2292 40.3917 33.6083 38.2333 35.7667 40.8542 38.3875 38.4646 40.7771 33.2229 35.5354 49.3333 19.425 54.575 24.6667 52.2625 26.9792ZM67.1396 16.1104 57.8896 6.86042C56.9646 5.93542 55.5 5.93542 54.6521 6.86042 53.7271 7.78542 53.7271 9.25 54.6521 10.0979L56.5792 12.025 52.4937 16.1104 49.3333 12.95 47.8687 11.4854C46.9437 10.5604 45.4792 10.5604 44.6312 11.4854 43.7062 12.4104 43.7062 13.875 44.6312 14.7229L46.0958 16.1875 25.7458 36.5375C24.2042 38.0792 23.2792 40.1604 23.2792 42.3958 23.2792 43.2437 23.4333 44.0917 23.6646 44.9396L19.6562 48.9479C18.5771 50.0271 18.2687 51.6458 18.8083 53.0333L6.62917 65.2125C6.0125 65.8292 6.0125 66.7542 6.62917 67.3708 6.9375 67.6792 7.32292 67.8333 7.70833 67.8333 8.09375 67.8333 8.47917 67.6792 8.7875 67.3708L20.9667 55.1917C22.3542 55.7313 23.9729 55.4229 25.0521 54.3438L29.0604 50.3354C29.9083 50.5667 30.7563 50.7208 31.6042 50.7208 33.7625 50.7208 35.8438 49.95 37.4625 48.2542L57.8125 27.9042 59.2771 29.3687C59.7396 29.8312 60.3563 30.0625 60.8958 30.0625 61.4354 30.0625 62.0521 29.8312 62.5146 29.3687 63.4396 28.4438 63.4396 26.9792 62.5146 26.1313L61.05 24.6667 57.8896 21.5062 61.975 17.4208 63.9021 19.3479C64.3646 19.8104 64.9812 20.0417 65.5208 20.0417 66.0604 20.0417 66.6771 19.8104 67.1396 19.3479 68.0646 18.4229 68.0646 17.0354 67.1396 16.1104Z" stroke="#FFC000" stroke-width="0.770813" fill="#4472C4" transform="matrix(1.01351 0 0 1 135 57)"/></g></g></g></g></svg>